<?xml version="1.0" encoding="utf-8"?>
<!-- Generator: Adobe Illustrator 27.1.0, SVG Export Plug-In . SVG Version: 6.00 Build 0)  -->
<svg version="1.1" id="Layer_1" xmlns="http://www.w3.org/2000/svg" xmlns:xlink="http://www.w3.org/1999/xlink" x="0px" y="0px"
	 viewBox="0 0 260.9 50.4" style="enable-background:new 0 0 260.9 50.4;" xml:space="preserve">
<style type="text/css">
	.st0{fill:none;}
	.st1{fill:#FFFFFF;}
</style>
<g>
	<g>
		<g>
			<g>
				<path class="st0" d="M260.9,24.8c0-14.1-3.6-19.3-7.1-21.7c-3.6-2.5-11.2-3.4-14.2-3c-2.8,0.3-5.4,1.3-7.9,2.4
					c-3,1.4-5.7,3.2-8.3,5.1c-2.2,1.6-4.4,1.7-6.8,0.5c-0.5-0.1-1-0.2-1.4-0.5c-0.1,0-0.2-0.1-0.3-0.1c-2.9-1.3-5.9-2.2-9.1-2.2
					c-4.7,0-8.1,2.3-10.3,6.4c-0.9,1.6-1.4,3.4-1.9,5.1c-0.1,0.4-0.1,0.8-0.2,1.2c-0.1,0.6-0.3,1.3-0.3,1.9c0,0.5,0,1-0.4,1l0,0
					L154.9,21l0,0c-1,0.2-2,0-3,0c-1.1,0-2.3,0-3.4,0c-0.2,0-0.4,0-0.7,0l0,0c-0.3-0.1-0.6-0.2-0.9-0.4c-0.4-0.3-0.7-0.8-1.4-0.7
					c-0.4,0.1-0.6,0-0.8-0.5c-0.2-0.6-0.7-1.2-1.4-1.2c-0.8,0-1.3,0.4-1.5,1.2c-0.1,0.5-0.3,0.5-0.7,0.6c-0.4,0-0.6-0.3-0.6-0.5
					c-0.1-0.7-0.7-1.1-1.3-1.2c-0.7-0.1-1.2,0.3-1.6,0.9c-0.2,0.3-0.3,0.7-0.8,0.7c-0.6,0-0.6-0.4-0.7-0.7c-0.3-0.6-0.6-0.8-1.3-0.9
					c-0.7,0-1.3,0.2-1.5,0.8c-0.2,0.7-0.6,0.7-1.2,0.7c-1.1,0.1-2.5-0.6-3.3,0.9c0,0.1-0.2,0.1-0.2,0.1c-0.2,0.2-0.5-0.1-0.6,0.3
					c-0.2,1.1-1,1.8-1.7,2.5c-0.1,0.1-0.2,0.3-0.2,0.5c0,1.2-0.3,2.4,1,3.2c0.4,0.3,0.6,0.8,0.8,1.3c0.3,0.9,1.6,0.9,1.6,2
					c0,0,0.5,0.1,0.7,0c0.7-0.1,1.5-0.2,2.2-0.2c0.4,0,0.7,0.1,0.7,0.5c0.1,0.8,0.8,1.1,1.4,1.2c0.7,0.1,1.3-0.4,1.6-1.1
					c0.1-0.3,0.2-0.6,0.7-0.6s0.6,0.2,0.7,0.5c0.3,0.6,0.8,1,1.5,1c0.8,0,1.2-0.5,1.5-1.1c0.1-0.2,0-0.7,0.6-0.6
					c0.5,0,0.6,0.3,0.7,0.7c0.4,1,1.5,1.4,2.3,0.7c0.7-0.6,1-1.3,2-1.6c0.8-0.2,1.4-0.6,2.2-0.7c0.2,0,0.5,0,0.8,0
					c0.2,0,0.3,0,0.5,0c1.7,0.1,3.3,0,5,0c0.6,0,1.2,0,1.8,0c2.3,0,4.6,0,6.9,0c1.3,0,2.6,0,3.9,0.1l25.4,0.1l0,0
					c0.4,0,0.4,0.5,0.5,0.8c0.1,0.6,0.1,1.2,0.2,1.8c0.2,0.3,0.3,0.6,0.2,1c0.1,0.1,0.2,0.2,0.2,0.3c0.7,2.8,1.7,5.3,3.5,7.5
					c2.1,2.5,4.7,3.8,7.9,4c3.7,0.2,7.1-0.9,10.4-2.4c0.3-0.1,0.6-0.2,1-0.4c1.4-0.5,2.8-0.9,4.4-0.7c1.3,0.2,2.2,1,3.2,1.6
					c3.3,2.2,6.7,4.4,10.5,5.8c3.4,1.2,6.9,2,10.5,1.4c3.4-0.5,6.3-2,8.7-4.5C256.5,42.6,260.9,38.9,260.9,24.8z M134.1,21.2v2
					C133.1,22.4,133.1,21.7,134.1,21.2z M134.1,27.5c0,0.3,0,0.6,0,1c-0.5-0.2-0.7-0.4-0.8-0.8c0-0.4-0.1-1.1,0.5-1.1
					C134.3,26.6,134.1,27.2,134.1,27.5z M137.3,28.5c-0.6,0-1.2,0.1-1.9,0.2c-0.5,0.1-0.6-0.1-0.6-0.6c0-0.3,0-0.6,0-0.9
					c-0.1-0.5,0.1-0.7,0.7-0.7c0.6,0,1.1-0.1,1.7-0.2c0.9-0.2,1.3,0.1,1.1,1.1C138.5,28.3,138.2,28.5,137.3,28.5z M138.3,23
					c-0.1,0.3-0.3,0.3-0.5,0.3c-0.6,0-1.1,0-1.7,0c-1.3,0-1.3,0-1.2-1.2c0-0.9,0-0.9,1.7-0.9c0.1,0,0.3,0,0.4,0
					C138.3,21.2,138.7,21.7,138.3,23z M142.5,28c0,0.2-0.2,0.2-0.3,0.2c-0.6,0-1.2,0.1-1.9,0.2c-0.3,0-0.9,0.2-1-0.2
					c-0.1-0.6-0.2-1.5,0.1-1.7c0.4-0.4,1.3-0.4,2.1-0.3c0.2,0.1,0.8-0.3,1,0.1C142.7,26.8,142.5,27.4,142.5,28z M142.6,23.2
					c-0.1,0.2-0.2,0.3-0.4,0.3c-0.9,0.1-1.7-0.2-2.6-0.2c-0.2,0-0.2-0.2-0.3-0.3c-0.3-1.3,0-1.6,1.3-1.6h0.7
					C142.5,21.4,142.9,21.9,142.6,23.2z M143.6,21.5c0.6-0.3,1.4-0.3,2.1,0.1c0.4,0.2,0.5,0.7,0.4,1c-0.2,0.7-0.7,0.9-1.5,0.8
					c0,0-0.1,0-0.2,0c-0.3-0.2-0.9,0.3-1-0.3C143.5,22.6,143.2,21.7,143.6,21.5z M144.3,28.3c-1.3,0.1-0.7-0.8-0.8-1.3
					c-0.2-1,0.5-0.8,1.1-0.8c0.8-0.2,1.4,0.2,1.5,1C146.3,27.9,145.6,28.2,144.3,28.3z M206.1,29.2l-0.1-0.1l0,0
					c-0.3-2.8-0.2-5.7-0.1-8.5c0,0,0,0,0-0.1h0.1c0,0,0.2,0,0.4,0.1C206.4,23.2,206.2,26.4,206.1,29.2z M213.8,31.8
					c-2.9,0.7-5.3,0-7.3-2.2c0.4,0,0.9-0.1,1.2,0.2c1.6,1.3,3.4,2,5.5,1.5c3.5-0.9,6-4.1,5-8.1c-0.6-2.6-2.3-4.1-4.8-4.8
					c-2.2-0.6-4.3-0.1-6,1.6c-0.2,0.2-0.4,0.4-0.7,0.4c1.1-1.6,2.2-2.6,4.1-2.8c3.8-0.4,6.9,1.6,8,5.2
					C220.2,26.7,217.8,30.8,213.8,31.8z M208,24.8c0-1,0.1-2.1,0-3.1c-0.1-0.8,0.3-1.3,0.9-1.6c3.2-1.9,7.5-0.8,8.6,3.5
					c0.9,3.5-1.7,6.7-5.2,6.8c-1.4,0-2.7-0.2-3.8-1.2c-0.4-0.3-0.5-0.6-0.5-1.1C208,27,208,25.9,208,24.8z M241.6,12.7
					c0,8.2,0,16.3,0,24.5c-1.3,0.4-2.7,0.4-4,0c0-8.1,0-16.2,0-24.3c0-0.5,0.1-0.7,0.7-0.7c1,0,2.1,0,3.1,0
					C241.7,12.3,241.6,12.5,241.6,12.7z"/>
			</g>
			<g>
				<path class="st1" d="M162.1,21.1v7.4c0,0.1,0,0.2,0,0.2c0,0.1-0.1,0.2-0.2,0.2s-0.2-0.1-0.2-0.2s0-0.2,0-0.2v-7.4
					c0-0.1,0-0.2,0-0.2c0-0.1,0.1-0.2,0.2-0.2s0.2,0.1,0.2,0.2C162,21,162.1,21,162.1,21.1z"/>
				<path class="st1" d="M152.7,21.3v7.2c0,0.1,0,0.2,0,0.2c0,0.1-0.1,0.2-0.2,0.2c-0.1,0-0.2-0.1-0.2-0.2s0-0.1,0-0.2v-7.2
					c0-0.1,0-0.2,0-0.2c0-0.1,0.1-0.2,0.2-0.2c0.1,0,0.2,0.1,0.2,0.2C152.7,21.1,152.7,21.2,152.7,21.3z"/>
				<path class="st1" d="M157.6,21.2v7.3c0,0.1,0,0.2,0,0.2c0,0.1-0.1,0.2-0.2,0.2c-0.1,0-0.2-0.1-0.2-0.2s0-0.1,0-0.2v-7.3
					c0-0.1,0-0.2,0-0.2c0-0.1,0.1-0.2,0.2-0.2c0.1,0,0.2,0.1,0.2,0.2C157.6,21,157.6,21.1,157.6,21.2z"/>
				<path class="st1" d="M174.5,21.1v7.5c0,0.1,0,0.2,0,0.2c0,0.1-0.1,0.2-0.2,0.2c-0.1,0-0.2-0.1-0.2-0.2s0-0.2,0-0.2v-7.5
					c0-0.1,0-0.2,0-0.2c0-0.1,0.1-0.2,0.2-0.2c0.1,0,0.2,0.1,0.2,0.2C174.4,20.9,174.5,21,174.5,21.1z"/>
				<path class="st1" d="M170.6,21.1v7.5c0,0.1,0,0.2,0,0.2c0,0.1-0.1,0.2-0.2,0.2c-0.1,0-0.2-0.1-0.2-0.2s0-0.2,0-0.2v-7.5
					c0-0.1,0-0.2,0-0.2c0-0.1,0.1-0.2,0.2-0.2c0.1,0,0.2,0.1,0.2,0.2S170.6,21,170.6,21.1z"/>
				<path class="st1" d="M166.5,21.1v7.5c0,0.1,0,0.2,0,0.2c0,0.1-0.1,0.2-0.2,0.2c-0.1,0-0.2-0.1-0.2-0.2s0-0.2,0-0.2v-7.5
					c0-0.1,0-0.2,0-0.2c0-0.1,0.1-0.2,0.2-0.2c0.1,0,0.2,0.1,0.2,0.2S166.5,21,166.5,21.1z"/>
			</g>
			<g>
				<g>
					<path d="M184.5,20.8L184.5,20.8L184.5,20.8C184.5,20.8,184.6,20.8,184.5,20.8C184.6,20.8,184.5,20.8,184.5,20.8z"/>
					<path class="st1" d="M184.5,20.8L184.5,20.8L184.5,20.8C184.5,20.8,184.6,20.8,184.5,20.8C184.6,20.8,184.5,20.8,184.5,20.8z"
						/>
				</g>
			</g>
			<g>
				<g>
					<path class="st1" d="M200.8,20.9c0,0.1,0,0.2,0,0.2v7.5c0,0.1,0,0.2,0,0.2c0,0.1-0.1,0.2-0.2,0.2c-0.1,0-0.2-0.1-0.2-0.2
						s0-0.2,0-0.2v-7.5c0-0.1,0-0.2,0-0.2c0-0.1,0.1-0.2,0.2-0.2S200.8,20.8,200.8,20.9z"/>
					<path class="st1" d="M205,21.1v7.5c0,0.1,0,0.2,0,0.2c0,0.1-0.1,0.2-0.2,0.2c-0.1,0-0.2-0.1-0.2-0.2s0-0.2,0-0.2v-7.5
						c0-0.1,0-0.2,0-0.2c0-0.1,0.1-0.2,0.2-0.2c0.1,0,0.2,0.1,0.2,0.2S205,21,205,21.1z"/>
					<path class="st1" d="M202.9,20.9c0,0.1,0,0.2,0,0.2v7.5c0,0.1,0,0.2,0,0.2c0,0.1-0.1,0.2-0.2,0.2c-0.1,0-0.2-0.2-0.2-0.4v-7.5
						c0-0.2,0.1-0.4,0.2-0.4C202.8,20.7,202.9,20.8,202.9,20.9z"/>
					<path class="st1" d="M198.5,20.9c0,0.1,0,0.2,0,0.2v7.5c0,0.1,0,0.2,0,0.2c0,0.1-0.1,0.2-0.2,0.2c-0.1,0-0.2-0.1-0.2-0.2
						s0-0.2,0-0.2v-7.5c0-0.1,0-0.2,0-0.2c0-0.1,0.1-0.2,0.2-0.2S198.4,20.8,198.5,20.9z"/>
				</g>
			</g>
			<g>
				<g>
					<path class="st1" d="M178,20.8c0,0.1,0,0.2,0,0.2v7.5c0,0.1,0,0.2,0,0.2c0,0.1-0.1,0.2-0.2,0.2c-0.1,0-0.2-0.1-0.2-0.2
						s0-0.2,0-0.2V21c0-0.1,0-0.2,0-0.2c0-0.1,0.1-0.2,0.2-0.2C177.9,20.7,177.9,20.7,178,20.8z"/>
					<path class="st1" d="M181.5,20.8c0,0.1,0,0.2,0,0.2v7.5c0,0.1,0,0.2,0,0.2c0,0.1-0.1,0.2-0.2,0.2c-0.1,0-0.2-0.1-0.2-0.2
						s0-0.2,0-0.2V21c0-0.1,0-0.2,0-0.2c0-0.1,0.1-0.2,0.2-0.2C181.4,20.7,181.4,20.7,181.5,20.8z"/>
					<path class="st1" d="M184.5,20.6c-0.1,0-0.2,0.1-0.2,0.2s0,0.2,0,0.2v7.6c0,0.1,0,0.2,0,0.2c0,0.1,0.1,0.2,0.2,0.2
						c0.1,0,0.2-0.1,0.2-0.2s0-0.2,0-0.2V21c0-0.1,0-0.2,0-0.2C184.7,20.7,184.6,20.6,184.5,20.6z"/>
					<path class="st1" d="M187.7,20.8c0,0.1,0,0.2,0,0.2v7.6c0,0.1,0,0.2,0,0.2c0,0.1-0.1,0.2-0.2,0.2c-0.1,0-0.2-0.1-0.2-0.2
						s0-0.2,0-0.2V21c0-0.1,0-0.2,0-0.2c0-0.1,0.1-0.2,0.2-0.2C187.6,20.6,187.7,20.7,187.7,20.8z"/>
					<path class="st1" d="M190.7,20.8c0,0.1,0,0.2,0,0.2v7.6c0,0.1,0,0.2,0,0.2c0,0.1-0.1,0.2-0.2,0.2c-0.1,0-0.2-0.1-0.2-0.2
						s0-0.2,0-0.2V21c0-0.1,0-0.2,0-0.2c0-0.1,0.1-0.2,0.2-0.2C190.6,20.6,190.7,20.7,190.7,20.8z"/>
					<path class="st1" d="M193.4,20.9c0,0.1,0,0.1,0,0.2v7.5c0,0.1,0,0.1,0,0.2l0,0c0,0.1-0.1,0.2-0.2,0.2c-0.1,0-0.2-0.1-0.2-0.2
						s0-0.2,0-0.2v-7.5c0-0.1,0-0.2,0-0.2c0-0.1,0.1-0.2,0.2-0.2C193.3,20.7,193.4,20.7,193.4,20.9L193.4,20.9z"/>
					<path class="st1" d="M195.9,20.9c0,0.1,0,0.2,0,0.2v7.5c0,0.1,0,0.2,0,0.2c0,0.1-0.1,0.2-0.2,0.2c-0.1,0-0.2-0.2-0.2-0.4v-7.5
						c0-0.2,0.1-0.4,0.2-0.4C195.8,20.7,195.8,20.8,195.9,20.9z"/>
					<path class="st1" d="M207,21.1v7.5c0,0.1,0,0.2,0,0.2c0,0.1-0.1,0.2-0.2,0.2c-0.1,0-0.2-0.1-0.2-0.2s0-0.2,0-0.2v-7.5
						c0-0.1,0-0.2,0-0.2c0-0.1,0.1-0.2,0.2-0.2c0.1,0,0.2,0.1,0.2,0.2S207,21,207,21.1z"/>
				</g>
			</g>
		</g>
	</g>
	<g>
		<g>
			<g>
				<path class="st0" d="M0,25.6c0,14.1,3.6,19.3,7.1,21.7c3.6,2.5,11.2,3.4,14.2,3c2.8-0.3,5.4-1.3,7.9-2.4c3-1.4,5.7-3.2,8.3-5.1
					c2.2-1.6,4.4-1.7,6.8-0.5c0.5,0.1,1,0.2,1.4,0.5c0.1,0,0.2,0.1,0.3,0.1c2.9,1.3,5.9,2.2,9.1,2.2c4.7,0,8.1-2.3,10.3-6.4
					c0.9-1.6,1.4-3.4,1.9-5.1c0.1-0.4,0.1-0.8,0.2-1.2c0.1-0.6,0.3-1.3,0.3-1.9c0-0.5,0-1,0.4-1l0,0l37.8-0.1l0,0c1-0.2,2,0,3,0
					c1.1,0,2.3,0,3.4,0c0.2,0,0.4,0,0.7,0l0,0c0.3,0.1,0.6,0.2,0.9,0.4c0.4,0.3,0.7,0.8,1.4,0.7c0.4-0.1,0.6,0,0.8,0.5
					c0.2,0.6,0.7,1.2,1.4,1.2c0.8,0,1.3-0.4,1.5-1.2c0.1-0.5,0.3-0.5,0.7-0.6c0.4,0,0.6,0.3,0.6,0.5c0.1,0.7,0.7,1.1,1.3,1.2
					c0.7,0.1,1.2-0.3,1.6-0.9c0.2-0.3,0.3-0.7,0.8-0.7c0.6,0,0.6,0.4,0.7,0.7c0.3,0.6,0.6,0.8,1.3,0.9c0.7,0,1.3-0.2,1.5-0.8
					c0.2-0.7,0.6-0.7,1.2-0.7c1.1-0.1,2.5,0.6,3.3-0.9c0-0.1,0.2-0.1,0.2-0.1c0.2-0.2,0.5,0.1,0.6-0.3c0.2-1.1,1-1.8,1.7-2.5
					c0.1-0.1,0.2-0.3,0.2-0.5c0-1.2,0.3-2.4-1-3.2c-0.4-0.3-0.6-0.8-0.8-1.3c-0.3-0.9-1.6-0.9-1.6-2c0,0-0.5-0.1-0.7,0
					c-0.7,0.1-1.5,0.2-2.2,0.2c-0.4,0-0.7-0.1-0.7-0.5c-0.1-0.8-0.8-1.1-1.4-1.2c-0.7-0.1-1.3,0.4-1.6,1.1c-0.1,0.3-0.2,0.6-0.7,0.6
					s-0.6-0.2-0.7-0.5c-0.3-0.6-0.8-1-1.5-1c-0.8,0-1.2,0.5-1.5,1.1c-0.1,0.2,0,0.7-0.6,0.6c-0.5,0-0.6-0.3-0.7-0.7
					c-0.4-1-1.5-1.4-2.3-0.7c-0.7,0.6-1,1.3-2,1.6c-0.8,0.2-1.4,0.6-2.2,0.7c-0.2,0-0.5,0-0.8,0c-0.2,0-0.3,0-0.5,0
					c-1.7-0.1-3.3,0-5,0c-0.6,0-1.2,0-1.8,0c-2.3,0-4.6,0-6.9,0c-1.3,0-2.6,0-3.9-0.1l-25.4-0.1l0,0c-0.4,0-0.4-0.5-0.5-0.8
					c-0.1-0.6-0.1-1.2-0.2-1.8c-0.2-0.3-0.3-0.6-0.2-1c-0.1-0.1-0.2-0.2-0.2-0.3c-0.7-2.8-1.7-5.3-3.5-7.5c-2.1-2.5-4.7-3.8-7.9-4
					c-3.7-0.2-7.1,0.9-10.4,2.4c-0.3,0.1-0.6,0.2-1,0.4C43,8.8,41.6,9.2,40,9c-1.3-0.2-2.2-1-3.2-1.6C33.5,5.2,30.1,3,26.3,1.6
					c-3.4-1.2-6.9-2-10.5-1.4c-3.4,0.5-6.3,2-8.7,4.5C4.4,7.8,0,11.5,0,25.6z M126.8,29.2v-2C127.8,28,127.8,28.7,126.8,29.2z
					 M126.8,22.9c0-0.3,0-0.6,0-1c0.5,0.2,0.7,0.4,0.8,0.8c0,0.4,0.1,1.1-0.5,1.1C126.6,23.8,126.8,23.2,126.8,22.9z M123.6,21.9
					c0.6,0,1.2-0.1,1.9-0.2c0.5-0.1,0.6,0.1,0.6,0.6c0,0.3,0,0.6,0,0.9c0.1,0.5-0.1,0.7-0.7,0.7s-1.1,0.1-1.7,0.2
					c-0.9,0.2-1.3-0.1-1.1-1.1C122.4,22.1,122.7,21.9,123.6,21.9z M122.6,27.4c0.1-0.3,0.3-0.3,0.5-0.3c0.6,0,1.1,0,1.7,0
					c1.3,0,1.3,0,1.2,1.2c0,0.9,0,0.9-1.7,0.9c-0.1,0-0.3,0-0.4,0C122.6,29.2,122.2,28.7,122.6,27.4z M118.4,22.4
					c0-0.2,0.2-0.2,0.3-0.2c0.6,0,1.2-0.1,1.9-0.2c0.3,0,0.9-0.2,1,0.2c0.1,0.6,0.2,1.5-0.1,1.7c-0.4,0.4-1.3,0.4-2.1,0.3
					c-0.2-0.1-0.8,0.3-1-0.1C118.2,23.6,118.4,23,118.4,22.4z M118.3,27.2c0.1-0.2,0.2-0.3,0.4-0.3c0.9-0.1,1.7,0.2,2.6,0.2
					c0.2,0,0.2,0.2,0.3,0.3c0.3,1.3,0,1.6-1.3,1.6h-0.7C118.4,29,118,28.5,118.3,27.2z M117.3,28.9c-0.6,0.3-1.4,0.3-2.1-0.1
					c-0.4-0.2-0.5-0.7-0.4-1c0.2-0.7,0.7-0.9,1.5-0.8c0,0,0.1,0,0.2,0c0.3,0.2,0.9-0.3,1,0.3C117.4,27.8,117.7,28.7,117.3,28.9z
					 M116.6,22.1c1.3-0.1,0.7,0.8,0.8,1.3c0.2,1-0.5,0.8-1.1,0.8c-0.8,0.2-1.4-0.2-1.5-1C114.6,22.5,115.3,22.2,116.6,22.1z
					 M54.8,21.2l0.1,0.1l0,0c0.3,2.8,0.2,5.7,0.1,8.5c0,0,0,0,0,0.1h-0.1c0,0-0.2,0-0.4-0.1C54.5,27.2,54.7,24,54.8,21.2z
					 M47.1,18.6c2.9-0.7,5.3,0,7.3,2.2c-0.4,0-0.9,0.1-1.2-0.2c-1.6-1.3-3.4-2-5.5-1.5c-3.5,0.9-6,4.1-5,8.1
					c0.6,2.6,2.3,4.1,4.8,4.8c2.2,0.6,4.3,0.1,6-1.6c0.2-0.2,0.4-0.4,0.7-0.4c-1.1,1.6-2.2,2.6-4.1,2.8c-3.8,0.4-6.9-1.6-8-5.2
					C40.7,23.7,43.1,19.6,47.1,18.6z M52.9,25.6c0,1-0.1,2.1,0,3.1c0.1,0.8-0.3,1.3-0.9,1.6c-3.2,1.9-7.5,0.8-8.6-3.5
					c-0.9-3.5,1.7-6.7,5.2-6.8c1.4,0,2.7,0.2,3.8,1.2c0.4,0.3,0.5,0.6,0.5,1.1C52.9,23.4,52.9,24.5,52.9,25.6z M19.3,37.7
					c0-8.2,0-16.3,0-24.5c1.3-0.4,2.7-0.4,4,0c0,8.1,0,16.2,0,24.3c0,0.5-0.1,0.7-0.7,0.7c-1,0-2.1,0-3.1,0
					C19.2,38.1,19.3,37.9,19.3,37.7z"/>
			</g>
			<g>
				<path class="st1" d="M90,29.3v-7.4c0-0.1,0-0.2,0-0.2c0-0.1,0.1-0.2,0.2-0.2s0.2,0.1,0.2,0.2s0,0.2,0,0.2v7.4c0,0.1,0,0.2,0,0.2
					c0,0.1-0.1,0.2-0.2,0.2S90,29.6,90,29.5C90.1,29.4,90,29.4,90,29.3z"/>
				<path class="st1" d="M99.4,29.1v-7.2c0-0.1,0-0.2,0-0.2c0-0.1,0.1-0.2,0.2-0.2s0.2,0.1,0.2,0.2s0,0.1,0,0.2v7.2
					c0,0.1,0,0.2,0,0.2c0,0.1-0.1,0.2-0.2,0.2s-0.2-0.1-0.2-0.2C99.4,29.3,99.4,29.2,99.4,29.1z"/>
				<path class="st1" d="M94.5,29.2v-7.3c0-0.1,0-0.2,0-0.2c0-0.1,0.1-0.2,0.2-0.2s0.2,0.1,0.2,0.2s0,0.1,0,0.2v7.3
					c0,0.1,0,0.2,0,0.2c0,0.1-0.1,0.2-0.2,0.2s-0.2-0.1-0.2-0.2C94.5,29.4,94.5,29.3,94.5,29.2z"/>
				<path class="st1" d="M77.6,29.3v-7.5c0-0.1,0-0.2,0-0.2c0-0.1,0.1-0.2,0.2-0.2s0.2,0.1,0.2,0.2s0,0.2,0,0.2v7.5
					c0,0.1,0,0.2,0,0.2c0,0.1-0.1,0.2-0.2,0.2s-0.2-0.1-0.2-0.2C77.7,29.5,77.6,29.4,77.6,29.3z"/>
				<path class="st1" d="M81.5,29.3v-7.5c0-0.1,0-0.2,0-0.2c0-0.1,0.1-0.2,0.2-0.2s0.2,0.1,0.2,0.2s0,0.2,0,0.2v7.5
					c0,0.1,0,0.2,0,0.2c0,0.1-0.1,0.2-0.2,0.2s-0.2-0.1-0.2-0.2S81.5,29.4,81.5,29.3z"/>
				<path class="st1" d="M85.6,29.3v-7.5c0-0.1,0-0.2,0-0.2c0-0.1,0.1-0.2,0.2-0.2s0.2,0.1,0.2,0.2s0,0.2,0,0.2v7.5
					c0,0.1,0,0.2,0,0.2c0,0.1-0.1,0.2-0.2,0.2s-0.2-0.1-0.2-0.2S85.6,29.4,85.6,29.3z"/>
			</g>
			<g>
				<g>
					<path d="M67.6,29.6L67.6,29.6L67.6,29.6C67.6,29.6,67.5,29.6,67.6,29.6C67.5,29.6,67.6,29.6,67.6,29.6z"/>
					<path class="st1" d="M67.6,29.6L67.6,29.6L67.6,29.6C67.6,29.6,67.5,29.6,67.6,29.6C67.5,29.6,67.6,29.6,67.6,29.6z"/>
				</g>
			</g>
			<g>
				<g>
					<path class="st1" d="M51.3,29.5c0-0.1,0-0.2,0-0.2v-7.5c0-0.1,0-0.2,0-0.2c0-0.1,0.1-0.2,0.2-0.2c0.1,0,0.2,0.1,0.2,0.2
						s0,0.2,0,0.2v7.5c0,0.1,0,0.2,0,0.2c0,0.1-0.1,0.2-0.2,0.2S51.3,29.6,51.3,29.5z"/>
					<path class="st1" d="M47.1,29.3v-7.5c0-0.1,0-0.2,0-0.2c0-0.1,0.1-0.2,0.2-0.2c0.1,0,0.2,0.1,0.2,0.2s0,0.2,0,0.2v7.5
						c0,0.1,0,0.2,0,0.2c0,0.1-0.1,0.2-0.2,0.2c-0.1,0-0.2-0.1-0.2-0.2S47.1,29.4,47.1,29.3z"/>
					<path class="st1" d="M49.2,29.5c0-0.1,0-0.2,0-0.2v-7.5c0-0.1,0-0.2,0-0.2c0-0.1,0.1-0.2,0.2-0.2c0.1,0,0.2,0.2,0.2,0.4v7.5
						c0,0.2-0.1,0.4-0.2,0.4C49.3,29.7,49.2,29.6,49.2,29.5z"/>
					<path class="st1" d="M53.6,29.5c0-0.1,0-0.2,0-0.2v-7.5c0-0.1,0-0.2,0-0.2c0-0.1,0.1-0.2,0.2-0.2c0.1,0,0.2,0.1,0.2,0.2
						s0,0.2,0,0.2v7.5c0,0.1,0,0.2,0,0.2c0,0.1-0.1,0.2-0.2,0.2S53.7,29.6,53.6,29.5z"/>
				</g>
			</g>
			<g>
				<g>
					<path class="st1" d="M74.1,29.6c0-0.1,0-0.2,0-0.2v-7.5c0-0.1,0-0.2,0-0.2c0-0.1,0.1-0.2,0.2-0.2s0.2,0.1,0.2,0.2s0,0.2,0,0.2
						v7.5c0,0.1,0,0.2,0,0.2c0,0.1-0.1,0.2-0.2,0.2C74.2,29.7,74.2,29.7,74.1,29.6z"/>
					<path class="st1" d="M70.6,29.6c0-0.1,0-0.2,0-0.2v-7.5c0-0.1,0-0.2,0-0.2c0-0.1,0.1-0.2,0.2-0.2s0.2,0.1,0.2,0.2s0,0.2,0,0.2
						v7.5c0,0.1,0,0.2,0,0.2c0,0.1-0.1,0.2-0.2,0.2C70.7,29.7,70.7,29.7,70.6,29.6z"/>
					<path class="st1" d="M67.6,29.8c0.1,0,0.2-0.1,0.2-0.2s0-0.2,0-0.2v-7.6c0-0.1,0-0.2,0-0.2c0-0.1-0.1-0.2-0.2-0.2
						s-0.2,0.1-0.2,0.2s0,0.2,0,0.2v7.6c0,0.1,0,0.2,0,0.2C67.4,29.7,67.5,29.8,67.6,29.8z"/>
					<path class="st1" d="M64.4,29.6c0-0.1,0-0.2,0-0.2v-7.6c0-0.1,0-0.2,0-0.2c0-0.1,0.1-0.2,0.2-0.2s0.2,0.1,0.2,0.2s0,0.2,0,0.2
						v7.6c0,0.1,0,0.2,0,0.2c0,0.1-0.1,0.2-0.2,0.2C64.5,29.8,64.4,29.7,64.4,29.6z"/>
					<path class="st1" d="M61.4,29.6c0-0.1,0-0.2,0-0.2v-7.6c0-0.1,0-0.2,0-0.2c0-0.1,0.1-0.2,0.2-0.2c0.1,0,0.2,0.1,0.2,0.2
						s0,0.2,0,0.2v7.6c0,0.1,0,0.2,0,0.2c0,0.1-0.1,0.2-0.2,0.2C61.5,29.8,61.4,29.7,61.4,29.6z"/>
					<path class="st1" d="M58.7,29.5c0-0.1,0-0.1,0-0.2v-7.5c0-0.1,0-0.1,0-0.2l0,0c0-0.1,0.1-0.2,0.2-0.2c0.1,0,0.2,0.1,0.2,0.2
						s0,0.2,0,0.2v7.5c0,0.1,0,0.2,0,0.2c0,0.1-0.1,0.2-0.2,0.2S58.7,29.7,58.7,29.5L58.7,29.5z"/>
					<path class="st1" d="M56.2,29.5c0-0.1,0-0.2,0-0.2v-7.5c0-0.1,0-0.2,0-0.2c0-0.1,0.1-0.2,0.2-0.2c0.1,0,0.2,0.2,0.2,0.4v7.5
						c0,0.2-0.1,0.4-0.2,0.4C56.3,29.7,56.3,29.6,56.2,29.5z"/>
					<path class="st1" d="M45.1,29.3v-7.5c0-0.1,0-0.2,0-0.2c0-0.1,0.1-0.2,0.2-0.2c0.1,0,0.2,0.1,0.2,0.2s0,0.2,0,0.2v7.5
						c0,0.1,0,0.2,0,0.2c0,0.1-0.1,0.2-0.2,0.2c-0.1,0-0.2-0.1-0.2-0.2S45.1,29.4,45.1,29.3z"/>
				</g>
			</g>
		</g>
	</g>
</g>
</svg>
