<?xml version="1.0" encoding="utf-8"?>
<!-- Combined Skewed Grid: Diamond and Box Grid Overlay -->
<svg version="1.1" id="Layer_1"
    xmlns="http://www.w3.org/2000/svg"
    xmlns:xlink="http://www.w3.org/1999/xlink" x="0px" y="0px" viewBox="0 0 950 950" style="enable-background:new 0 0 950 950;" xml:space="preserve">
    <style type="text/css">
	.st0{stroke:#000000;stroke-width:7;stroke-miterlimit:10;}
	.st1{fill:none;}
	.diamond-points{fill:#000000;stroke:#000000;stroke-width:1;}
	.box-points{fill:#000000;stroke:#000000;stroke-width:1;}
	.center-point{fill:#000000;}
    </style>

    <!-- Center point (shared by both grids) -->
    <circle id="center_point" class="center-point" cx="475" cy="475" r="12"/>

    <!-- Diamond Grid Elements -->
    <g id="diamond-grid">
        <!-- Diamond outer points -->
        <circle id="n_diamond_outer_point" class="diamond-points" cx="475" cy="175" r="25"/>
        <circle id="e_diamond_outer_point" class="diamond-points" cx="775" cy="475" r="25"/>
        <circle id="s_diamond_outer_point" class="diamond-points" cx="475" cy="775" r="25"/>
        <circle id="w_diamond_outer_point" class="diamond-points" cx="175" cy="475" r="25"/>

        <!-- Diamond hand points -->
        <circle id="n_diamond_hand_point" class="diamond-points" cx="475" cy="331.9" r="8"/>
        <circle id="e_diamond_hand_point" class="diamond-points" cx="618.1" cy="475" r="8"/>
        <circle id="s_diamond_hand_point" class="diamond-points" cx="475" cy="618.1" r="8"/>
        <circle id="w_diamond_hand_point" class="diamond-points" cx="331.9" cy="475" r="8"/>

        <!-- Diamond layer 2 points -->
        <circle id="ne_diamond_layer2_point" class="st1" cx="618.1" cy="331.9" r="8.8"/>
        <circle id="se_diamond_layer2_point" class="st1" cx="618.1" cy="618.1" r="8.8"/>
        <circle id="sw_diamond_layer2_point" class="st1" cx="331.9" cy="618.1" r="8.8"/>
        <circle id="nw_diamond_layer2_point" class="st1" cx="331.9" cy="331.9" r="8.8"/>

        <!-- Diamond strict points -->
        <circle id="ne_diamond_layer2_point_strict" class="st1" cx="625" cy="325" r="8.8"/>
        <circle id="se_diamond_layer2_point_strict" class="st1" cx="625" cy="625" r="8.8"/>
        <circle id="sw_diamond_layer2_point_strict" class="st1" cx="325" cy="625" r="8.8"/>
        <circle id="nw_diamond_layer2_point_strict" class="st1" cx="325" cy="325" r="8.8"/>

        <circle id="n_diamond_hand_point_strict" class="st1" cx="475" cy="325" r="4.7"/>
        <circle id="e_diamond_hand_point_strict" class="st1" cx="625" cy="475" r="4.7"/>
        <circle id="s_diamond_hand_point_strict" class="st1" cx="475" cy="625" r="4.7"/>
        <circle id="w_diamond_hand_point_strict" class="st1" cx="325" cy="475" r="4.7"/>
    </g>

    <!-- Box Grid Elements -->
    <g id="box-grid">
        <!-- Box outer points -->
        <path id="ne_box_outer_point" class="box-points st0" d="M262.9,247.9c4,0,7.8,1.6,10.6,4.4c5.8,5.8,5.8,15.4,0,21.2c-2.8,2.8-6.6,4.4-10.6,4.4
		s-7.8-1.6-10.6-4.4c-5.8-5.8-5.8-15.4,0-21.2C255.1,249.4,258.9,247.9,262.9,247.9 M262.9,237.9c-6.4,0-12.8,2.4-17.7,7.3
		c-9.8,9.8-9.8,25.6,0,35.4c4.9,4.9,11.3,7.3,17.7,7.3s12.8-2.4,17.7-7.3c9.8-9.8,9.8-25.6,0-35.4
		C275.7,240.3,269.3,237.9,262.9,237.9L262.9,237.9z"/>
        <path id="se_box_outer_point" class="box-points st0" d="M687.1,247.9c4,0,7.8,1.6,10.6,4.4c5.8,5.8,5.8,15.4,0,21.2c-2.8,2.8-6.6,4.4-10.6,4.4
		s-7.8-1.6-10.6-4.4c-5.8-5.8-5.8-15.4,0-21.2C679.4,249.4,683.1,247.9,687.1,247.9 M687.1,237.9c-6.4,0-12.8,2.4-17.7,7.3
		c-9.8,9.8-9.8,25.6,0,35.4c4.9,4.9,11.3,7.3,17.7,7.3s12.8-2.4,17.7-7.3c9.8-9.8,9.8-25.6,0-35.4
		C699.9,240.3,693.5,237.9,687.1,237.9L687.1,237.9z"/>
        <path id="sw_box_outer_point" class="box-points st0" d="M687.1,672.1c4,0,7.8,1.6,10.6,4.4c5.8,5.8,5.8,15.4,0,21.2c-2.8,2.8-6.6,4.4-10.6,4.4
		s-7.8-1.6-10.6-4.4c-5.8-5.8-5.8-15.4,0-21.2C679.4,673.7,683.1,672.1,687.1,672.1 M687.1,662.1c-6.4,0-12.8,2.4-17.7,7.3
		c-9.8,9.8-9.8,25.6,0,35.4c4.9,4.9,11.3,7.3,17.7,7.3s12.8-2.4,17.7-7.3c9.8-9.8,9.8-25.6,0-35.4
		C699.9,664.6,693.5,662.1,687.1,662.1L687.1,662.1z"/>
        <path id="nw_box_outer_point" class="box-points st0" d="M262.9,672.1c4,0,7.8,1.6,10.6,4.4c5.8,5.8,5.8,15.4,0,21.2c-2.8,2.8-6.6,4.4-10.6,4.4
		s-7.8-1.6-10.6-4.4c-5.8-5.8-5.8-15.4,0-21.2C255.1,673.7,258.9,672.1,262.9,672.1 M262.9,662.1c-6.4,0-12.8,2.4-17.7,7.3
		c-9.8,9.8-9.8,25.6,0,35.4c4.9,4.9,11.3,7.3,17.7,7.3s12.8-2.4,17.7-7.3c9.8-9.8,9.8-25.6,0-35.4
		C275.7,664.6,269.3,662.1,262.9,662.1L262.9,662.1z"/>

        <!-- Box hand points -->
        <circle id="nw_box_hand_point" class="box-points" cx="373.8" cy="373.8" r="8"/>
        <circle id="ne_box_hand_point" class="box-points" cx="576.2" cy="373.8" r="8"/>
        <circle id="se_box_hand_point" class="box-points" cx="576.2" cy="576.2" r="8"/>
        <circle id="sw_box_hand_point" class="box-points" cx="373.8" cy="576.2" r="8"/>

        <!-- Box layer 2 points -->
        <circle id="n_box_layer2_point" class="st1" cx="475" cy="272.6" r="8.8"/>
        <circle id="e_box_layer2_point" class="st1" cx="677.4" cy="475" r="8.8"/>
        <circle id="s_box_layer2_point" class="st1" cx="475" cy="677.4" r="8.8"/>
        <circle id="w_box_layer2_point" class="st1" cx="272.6" cy="475" r="8.8"/>

        <!-- Box strict points -->
        <circle id="strict_n_box_layer2_point" class="st1" cx="475" cy="262.9" r="8.8"/>
        <circle id="strict_e_box_layer2_point" class="st1" cx="687.1" cy="475" r="8.8"/>
        <circle id="strict_s_box_layer2_point" class="st1" cx="475" cy="687.1" r="8.8"/>
        <circle id="strict_w_box_layer2_point" class="st1" cx="262.9" cy="475" r="8.8"/>

        <circle id="strict_se_box_hand_point" class="st1" cx="581.1" cy="581.1" r="4.7"/>
        <circle id="strict_sw_box_hand_point" class="st1" cx="368.9" cy="581.1" r="4.7"/>
        <circle id="strict_nw_box_hand_point" class="st1" cx="368.9" cy="368.9" r="4.7"/>
        <circle id="strict_ne_box_hand_point" class="st1" cx="581.1" cy="368.9" r="4.7"/>
    </g>
</svg>
