<?xml version="1.0" encoding="utf-8"?>
<!-- Generator: Adobe Illustrator 27.1.0, SVG Export Plug-In . SVG Version: 6.00 Build 0)  -->
<svg version="1.1" id="Layer_1" xmlns="http://www.w3.org/2000/svg" xmlns:xlink="http://www.w3.org/1999/xlink" x="0px" y="0px"
	 viewBox="0 0 572.3 64" style="enable-background:new 0 0 572.3 64;" xml:space="preserve">
<style type="text/css">
	.st0{fill:#989498;}
	.st1{fill:#FFD540;}
	.st2{fill:none;}
</style>
<g>
	<g>
		<g id="sword">
			<g id="hilt">
				<path class="st0" d="M118.7,10.5v42.9c0,5.2,4.2,9.5,9.4,9.5h9.1c5.2,0,9.4-4.2,9.4-9.5l12.4-10h0.8V20.5H159l-12.4-10
					c0-5.2-4.2-9.5-9.4-9.5h-9.1C122.9,1,118.7,5.2,118.7,10.5z"/>
				<path d="M117.7,53.4V10.5c0-5.8,4.7-10.5,10.4-10.5h9.1c5.6,0,10.1,4.4,10.4,10l11.7,9.5h1.4v24.9h-1.4l-11.7,9.5
					c-0.3,5.6-4.8,10-10.4,10h-9.1C122.4,63.9,117.7,59.2,117.7,53.4z M158.7,21.5h-0.1l-13-10.6v-0.5c0-4.7-3.7-8.5-8.3-8.5h-9.1
					c-4.6,0-8.4,3.8-8.4,8.5v42.9c0,4.7,3.8,8.5,8.4,8.5h9.1c4.6,0,8.3-3.8,8.3-8.5v-0.5l13-10.6h0.1V21.5z"/>
			</g>
			<g id="handle">
				<path class="st0" d="M159.7,20.5v22.9h115.5c1.6,10.4,5.2,17.7,9.5,17.7c4.2,0,7.9-7.3,9.5-17.7c0.5-3.5,0.8-7.4,0.8-11.4
					c0-4.1-0.3-7.9-0.8-11.4c-1.6-10.4-5.2-17.7-9.5-17.7s-7.9,7.3-9.5,17.7H159.7V20.5z"/>
				<path d="M274.3,44.4H158.7V19.5h115.6c1.8-10.9,5.7-17.7,10.3-17.7c4.7,0,8.7,7.1,10.5,18.5c0.6,3.6,0.8,7.5,0.8,11.6
					s-0.3,8-0.8,11.6c-1.7,11.4-5.7,18.5-10.5,18.5C280,62.1,276.1,55.3,274.3,44.4z M276.2,20.7l-0.1,0.9H160.7v20.9H276l0.1,0.9
					c1.5,9.9,5,16.8,8.5,16.8s7-6.9,8.5-16.8c0.5-3.5,0.8-7.3,0.8-11.3s-0.3-7.7-0.8-11.3c-1.5-9.9-5-16.8-8.5-16.8
					C281.1,3.9,277.6,10.8,276.2,20.7z"/>
			</g>
			<g id="wick">
				<g>
					<g>
						<path class="st1" d="M294.9,32c0,4.1-0.3,7.9-0.8,11.4H560c3.2,0,6-1.3,8.1-3.3c2.1-2.1,3.3-4.9,3.3-8.1
							c0-6.3-5.1-11.4-11.4-11.4H294.1C294.6,24,294.9,27.9,294.9,32z"/>
						<path d="M293.1,43.2c0.5-3.5,0.8-7.3,0.8-11.3s-0.3-7.7-0.8-11.3l-0.2-1.2h267c6.9,0,12.4,5.6,12.4,12.4
							c0,3.3-1.3,6.4-3.6,8.8s-5.5,3.6-8.8,3.6h-267L293.1,43.2z M295.3,21.5c0.4,3.3,0.7,6.8,0.7,10.4s-0.2,7.1-0.7,10.4H560
							c2.8,0,5.4-1.1,7.4-3.1s3.1-4.6,3.1-7.4c0-5.7-4.7-10.4-10.4-10.4L295.3,21.5L295.3,21.5z"/>
					</g>
				</g>
			</g>
		</g>
	</g>
	<g>
		<g id="sword_00000072996792360738804780000017761655850839946172_">
			<g id="hilt_00000087389039134688812210000000023336087938474635_">
				<path class="st2" d="M453.6,53.5l0-42.9c0-5.2-4.2-9.5-9.4-9.5h-9.1c-5.2,0-9.4,4.2-9.4,9.5l-12.4,10h-0.8v22.9h0.8l12.4,10
					c0,5.2,4.2,9.5,9.4,9.5h9.1C449.4,63,453.6,58.8,453.6,53.5z"/>
				<path class="st2" d="M454.6,10.6l0,42.9c0,5.8-4.7,10.5-10.4,10.5h-9.1c-5.6,0-10.1-4.4-10.4-10L413,44.5h-1.4V19.6h1.4
					l11.7-9.5c0.3-5.6,4.8-10,10.4-10h9.1C449.9,0.1,454.6,4.8,454.6,10.6z M413.6,42.5h0.1l13,10.6v0.5c0,4.7,3.7,8.5,8.3,8.5h9.1
					c4.6,0,8.4-3.8,8.4-8.5V10.7c0-4.7-3.8-8.5-8.4-8.5H435c-4.6,0-8.3,3.8-8.3,8.5v0.5l-13,10.6h-0.1L413.6,42.5z"/>
			</g>
			<g id="handle_00000088830127943355793950000010521811085592621452_">
				<path class="st2" d="M412.6,43.5l0-22.9H297.1c-1.6-10.4-5.2-17.7-9.5-17.7c-4.2,0-7.9,7.3-9.5,17.7c-0.5,3.5-0.8,7.4-0.8,11.4
					c0,4.1,0.3,7.9,0.8,11.4c1.6,10.4,5.2,17.7,9.5,17.7s7.9-7.3,9.5-17.7L412.6,43.5L412.6,43.5z"/>
				<path class="st2" d="M298,19.6h115.6l0,24.9H298c-1.8,10.9-5.7,17.7-10.3,17.7c-4.7,0-8.7-7.1-10.5-18.5
					c-0.6-3.6-0.8-7.5-0.8-11.6s0.3-8,0.8-11.6C278.9,9.1,282.9,2,287.7,2C292.3,1.9,296.2,8.7,298,19.6z M296.1,43.3l0.1-0.9h115.4
					l0-20.9H296.3l-0.1-0.9c-1.5-9.9-5-16.8-8.5-16.8s-7,6.9-8.5,16.8c-0.5,3.5-0.8,7.3-0.8,11.3s0.3,7.7,0.8,11.3
					c1.5,9.9,5,16.8,8.5,16.8C291.2,60.1,294.7,53.2,296.1,43.3z"/>
			</g>
			<g id="wick_00000148658114060098149490000004258179906355889281_">
				<g>
					<g>
						<path class="st2" d="M277.4,32c0-4.1,0.3-7.9,0.8-11.4H12.3c-3.2,0-6,1.3-8.1,3.3C2.1,26,0.9,28.8,0.9,32
							c0,6.3,5.1,11.4,11.4,11.4h265.9C277.7,40,277.4,36.1,277.4,32z"/>
						<path class="st2" d="M279.2,20.8c-0.5,3.5-0.8,7.3-0.8,11.3s0.3,7.7,0.8,11.3l0.2,1.2h-267C5.5,44.6,0,39,0,32.2
							c0-3.3,1.3-6.4,3.6-8.8s5.5-3.6,8.8-3.6h267L279.2,20.8z M277,42.5c-0.4-3.3-0.7-6.8-0.7-10.4s0.2-7.1,0.7-10.4H12.3
							c-2.8,0-5.4,1.1-7.4,3.1s-3.1,4.6-3.1,7.4c0,5.7,4.7,10.4,10.4,10.4L277,42.5L277,42.5z"/>
					</g>
				</g>
			</g>
		</g>
	</g>
</g>
</svg>
